<svg xmlns="http://www.w3.org/2000/svg" fill="none" viewBox="0 0 24 24" height="24" width="24">
  <g id="allergy">
    <path id="Union" fill="#000000" d="M15 2c1.1046 0 2 0.89543 2 2s-0.8954 2 -2 2l-0.5088 0.87988C15.1136 6.6355 15.7909 6.5 16.5 6.5h1.7695c0.346 -0.59733 0.9906 -1 1.7305 -1 1.1046 0 2 0.89543 2 2s-0.8954 2 -2 2c-0.7399 0 -1.3845 -0.40267 -1.7305 -1H16.5c-1.5855 0 -2.9242 1.05434 -3.3545 2.5h2.124c0.346 -0.5973 0.9906 -1 1.7305 -1 1.1046 0 2 0.8954 2 2s-0.8954 2 -2 2c-0.7399 0 -1.3845 -0.4027 -1.7305 -1h-2.124c0.4303 1.4457 1.769 2.5 3.3545 2.5h1.7695c0.346 -0.5973 0.9906 -1 1.7305 -1 1.1046 0 2 0.8954 2 2s-0.8954 2 -2 2c-0.7399 0 -1.3845 -0.4027 -1.7305 -1H16.5c-0.7651 0 -1.4933 -0.1572 -2.1553 -0.4395l0.5449 0.9444c0.0366 -0.002 0.0733 -0.0049 0.1104 -0.0049 1.1046 0 2 0.8954 2 2s-0.8954 2 -2 2 -2 -0.8954 -2 -2c0 -0.323 0.0779 -0.6274 0.2139 -0.8975l-0.7403 -1.2822c-0.8154 -1.4124 -1.3032 -2.9854 -1.4355 -4.6035C7.01124 14.1123 4 17.7034 4 22H2c0 -5.3995 3.8909 -9.8872 9.0215 -10.8193 0.1069 -1.6889 0.6029 -3.3338 1.4521 -4.80472l0.795 -1.37793C13.0988 4.70411 13 4.36386 13 4c0 -1.10457 0.8954 -2 2 -2" stroke-width="1"></path>
  </g>
</svg>